<svg width="16" height="22" viewBox="0 0 16 22" version="1.1" xmlns="http://www.w3.org/2000/svg" xmlns:xlink="http://www.w3.org/1999/xlink">
<title>Vector</title>
<desc>Created using Figma</desc>
<g id="Canvas" transform="translate(-3930 212)">
<g id="Vector">
<use xlink:href="#path0_fill" transform="translate(3930 -212)" fill="#14152D"/>
</g>
</g>
<defs>
<path id="path0_fill" d="M 11.9572 0.798822L 11.9572 6.53091C 11.9572 6.9735 11.6043 7.32973 11.1658 7.32973L 10.246 7.32973C 10.2246 7.32973 10.2032 7.32973 10.1818 7.32973C 10.1818 7.32973 10.1818 7.32973 10.1818 7.31894C 10.1818 6.09912 9.20856 5.11678 8 5.11678C 6.79144 5.11678 5.81818 6.09912 5.81818 7.31894L 5.81818 7.32973C 5.80749 7.32973 5.79679 7.32973 5.7861 7.32973L 4.86631 7.32973C 4.42781 7.32973 4.07487 6.9735 4.07487 6.53091L 4.07487 0.798822C 4.07487 0.356231 3.72192 0 3.28342 0L 0.791443 0C 0.352941 0 3.03975e-15 0.356231 3.03975e-15 0.798822L 3.03975e-15 21.2012C 3.03975e-15 21.6438 0.352941 22 0.791443 22L 15.2086 22C 15.6471 22 16 21.6438 16 21.2012L 16 0.798822C 16 0.356231 15.6471 0 15.2086 0L 12.7487 0C 12.3102 0 11.9572 0.356231 11.9572 0.798822Z"/>
</defs>
</svg>
