<svg width="61" height="23" viewBox="0 0 61 23" version="1.1" xmlns="http://www.w3.org/2000/svg" xmlns:xlink="http://www.w3.org/1999/xlink">
<title>&#208;&#187;&#208;&#190;&#208;&#179;&#208;&#190;</title>
<desc>Created using Figma</desc>
<g id="Canvas" transform="translate(-2075 210)">
<g id="&#208;&#187;&#208;&#190;&#208;&#179;&#208;&#190;">
<g id="Vector">
<use xlink:href="#path0_fill" transform="translate(2075 -210)" fill="#E03114"/>
</g>
<g id="Vector">
<use xlink:href="#path1_fill" transform="translate(2081.08 -204.861)" fill="#14152D"/>
</g>
<g id="Vector">
<use xlink:href="#path2_fill" transform="translate(2096.17 -205.289)" fill="#14152D"/>
</g>
<g id="Vector">
<use xlink:href="#path3_fill" transform="translate(2111.11 -204.861)" fill="#14152D"/>
</g>
<g id="Vector">
<use xlink:href="#path4_fill" transform="translate(2125.6 -196.371)" fill="#14152D"/>
</g>
</g>
</g>
<defs>
<path id="path0_fill" d="M 59.2288 23L 1.77063 23C 0.79803 23 0 22.1939 0 21.2114L 0 1.78861C 0 0.806134 0.79803 0 1.77063 0L 59.2288 0C 60.2014 0 60.9994 0.806134 60.9994 1.78861L 60.9994 21.2114C 61.0244 22.1939 60.2263 23 59.2288 23Z"/>
<path id="path1_fill" d="M 11.6213 5.81928C 10.7485 5.11391 9.50155 4.78642 7.90549 4.78642L 4.66349 4.78642L 4.66349 3.52684L 11.0477 3.52684C 11.1724 3.52684 11.2971 3.47645 11.3969 3.37568C 11.4966 3.27492 11.5465 3.17415 11.5465 3.023L 11.5465 0.503833C 11.5465 0.377875 11.4966 0.251917 11.3969 0.15115C 11.2971 0.0503834 11.1974 -9.60986e-08 11.0477 -9.60986e-08L 0.498769 -9.60986e-08C 0.374077 -9.60986e-08 0.249384 0.0503834 0.149631 0.15115C 0.0498769 0.251917 -9.51326e-08 0.352683 -9.51326e-08 0.503833L -9.51326e-08 12.218C -9.51326e-08 12.3439 0.0498769 12.4699 0.149631 12.5706C 0.249384 12.6714 0.349138 12.7218 0.498769 12.7218L 7.88055 12.7218C 9.47661 12.7218 10.7235 12.3691 11.6213 11.6637C 12.5191 10.9584 12.9431 9.9759 12.9431 8.74151C 12.9431 7.50712 12.5191 6.52464 11.6213 5.81928ZM 8.10499 8.69113C 8.10499 8.91785 8.03018 9.11939 7.90549 9.32092C 7.75586 9.49726 7.55635 9.59803 7.28203 9.59803L 4.66349 9.59803L 4.66349 7.80942L 7.25709 7.80942C 7.50647 7.80942 7.70598 7.88499 7.85561 8.06134C 8.03018 8.23768 8.10499 8.43921 8.10499 8.69113Z"/>
<path id="path2_fill" d="M 3.8053e-07 0.503834C 3.8053e-07 0.377875 0.0498769 0.251917 0.149631 0.15115C 0.249384 0.0503832 0.349139 1.92197e-07 0.498769 1.92197e-07L 3.36669 1.92197e-07C 3.49138 1.92197e-07 3.61608 0.0503832 3.71583 0.15115C 3.81558 0.251917 3.86546 0.352684 3.86546 0.503834C 3.86546 1.00767 3.96521 1.36035 4.18966 1.56188C 4.4141 1.76342 4.76324 1.83899 5.21214 1.83899L 12.1201 1.83899C 12.2448 1.83899 12.3695 1.88938 12.4443 1.99014C 12.544 2.09091 12.5939 2.19168 12.5939 2.34283L 12.6189 12.6462C 12.6189 12.7722 12.569 12.8981 12.4692 12.9989C 12.3695 13.0997 12.2697 13.1501 12.1201 13.1501L 0.523707 13.0997C 0.399015 13.0997 0.274323 13.0493 0.174569 12.9485C 0.074815 12.8478 0.0249384 12.747 0.0249384 12.5958L 0.0249384 9.22015C 0.0249384 9.09419 0.074815 8.96824 0.174569 8.86747C 0.274323 8.7667 0.374077 8.71632 0.523707 8.71632L 8.75339 8.69113L 8.75339 6.12158L 5.21214 6.12158C 3.46644 6.12158 2.16964 5.61774 1.32174 4.63527C 0.423953 3.67798 3.8053e-07 2.29244 3.8053e-07 0.503834Z"/>
<path id="path3_fill" d="M 4.68843 9.16977L 11.8458 9.16977C 11.9705 9.16977 12.0951 9.22015 12.1949 9.32092C 12.2947 9.42169 12.3445 9.52245 12.3445 9.6736L 12.3445 12.2432C 12.3445 12.3691 12.2947 12.4951 12.1949 12.5958C 12.0951 12.6966 11.9954 12.747 11.8458 12.747L 0.49877 12.747C 0.374077 12.747 0.249383 12.6966 0.149629 12.5958C 0.0498754 12.4951 7.61061e-07 12.3943 7.61061e-07 12.2432L 7.61061e-07 0.503833C 7.61061e-07 0.377875 0.0498754 0.251917 0.149629 0.15115C 0.249383 0.0503834 0.349139 -9.60986e-08 0.49877 -9.60986e-08L 11.6712 -9.60986e-08C 11.7959 -9.60986e-08 11.9206 0.0503834 12.0203 0.15115C 12.1201 0.251917 12.17 0.352683 12.17 0.503833L 12.17 3.07338C 12.17 3.19934 12.1201 3.3253 12.0203 3.42607C 11.9206 3.52683 11.8208 3.57722 11.6712 3.57722L 4.68843 3.57722L 4.68843 4.68565L 10.6737 4.68565C 10.7983 4.68565 10.923 4.73603 11.0228 4.8368C 11.1225 4.93757 11.1724 5.03834 11.1724 5.18949L 11.1724 7.5575C 11.1724 7.68346 11.1225 7.80942 11.0228 7.91019C 10.923 8.01095 10.8233 8.06134 10.6737 8.06134L 4.68843 8.06134L 4.68843 9.16977Z"/>
<path id="path4_fill" d="M 0.498767 -3.84394e-07L 4.26447 -3.84394e-07C 4.38917 -3.84394e-07 4.51386 0.0503835 4.61361 0.15115C 4.71337 0.251917 4.76324 0.352683 4.76324 0.503833L 4.76324 3.82914C 4.76324 3.95509 4.71337 4.08105 4.61361 4.18182C 4.51386 4.28258 4.4141 4.33297 4.26447 4.33297L 0.498767 4.33297C 0.374075 4.33297 0.249384 4.28258 0.149631 4.18182C 0.0498769 4.08105 -1.52212e-06 3.98029 -1.52212e-06 3.82914L -1.52212e-06 0.478642C -1.52212e-06 0.352683 0.0498769 0.226725 0.149631 0.125958C 0.249384 0.050383 0.349137 -3.84394e-07 0.498767 -3.84394e-07Z"/>
</defs>
</svg>
